# xmcd
#
# Track frame offsets: 
#        150
#        21340
#        40014
#        60381
#        84327
#        101417
#        120466
#        138573
#        167329
#        186697
#        203102
#        225462
#        241136
#        260086
#        281443
#        307834
#
# Disc length: 4167 seconds
#
# Revision: 1
# Processed by: cddbd v1.5.2PL0 Copyright (c) Steve Scherf et al.
# Submitted via: ExactAudioCopy v1.1
#
DISCID=ce104510
DTITLE=Lorraine Ellison - Sister Love - Disc 3
DYEAR=2006
DGENRE=R&B
TTITLE0=True Love
TTITLE1=I Need Your Love
TTITLE2=Goodbye My Love
TTITLE3=How Do You Think I Feel
TTITLE4=You Can't Slow Me Down
TTITLE5=Why Should We Say Goodbye
TTITLE6=Anything You Need
TTITLE7=Your Love Will Be Sweeter Someday
TTITLE8=I Love You More Today
TTITLE9=I Can't Get Along Without You
TTITLE10=I Can't Stand to Wait Much Longer
TTITLE11=Fools Are the Only Ones Who Have to Cry
TTITLE12=Without Your Love
TTITLE13=Same Old Thing Called Love
TTITLE14=God Can Stop the Rain from Falling
TTITLE15=Unknown Track
EXTD=
EXTT0=
EXTT1=
EXTT2=
EXTT3=
EXTT4=
EXTT5=
EXTT6=
EXTT7=
EXTT8=
EXTT9=
EXTT10=
EXTT11=
EXTT12=
EXTT13=
EXTT14=
EXTT15=
PLAYORDER=
